<svg width="120" height="120" viewBox="0 0 120 120" fill="none" xmlns="http://www.w3.org/2000/svg">
  <!-- Background Circle -->
  <circle cx="60" cy="60" r="55" fill="#4A6BFF" opacity="0.1"/>
  
  <!-- Book Stack -->
  <rect x="25" y="70" width="30" height="4" rx="2" fill="#4A6BFF"/>
  <rect x="27" y="66" width="26" height="4" rx="2" fill="#6B7FFF"/>
  <rect x="29" y="62" width="22" height="4" rx="2" fill="#8B9FFF"/>
  
  <!-- Graduation Cap -->
  <path d="M45 45 L75 35 L75 40 L45 50 L15 40 L45 30 Z" fill="#4A6BFF"/>
  <rect x="72" y="35" width="6" height="15" rx="3" fill="#4A6BFF"/>
  <circle cx="78" cy="32" r="3" fill="#FF6B6B"/>
  
  <!-- User Icon -->
  <circle cx="85" cy="75" r="8" fill="#4A6BFF" opacity="0.8"/>
  <path d="M85 83 C80 83 76 87 76 92 L94 92 C94 87 90 83 85 83 Z" fill="#4A6BFF" opacity="0.8"/>
  
  <!-- Study Elements -->
  <circle cx="35" cy="35" r="3" fill="#FF6B6B" opacity="0.6"/>
  <circle cx="95" cy="45" r="2" fill="#4ECDC4" opacity="0.6"/>
  <circle cx="20" cy="55" r="2" fill="#FFE66D" opacity="0.6"/>
  <circle cx="100" cy="75" r="2" fill="#FF6B6B" opacity="0.6"/>
  
  <!-- Connecting Lines -->
  <path d="M35 35 Q50 25 75 35" stroke="#4A6BFF" stroke-width="1" opacity="0.3" fill="none"/>
  <path d="M85 75 Q70 85 45 75" stroke="#4A6BFF" stroke-width="1" opacity="0.3" fill="none"/>
</svg>