<svg width="500" height="400" viewBox="0 0 500 400" fill="none" xmlns="http://www.w3.org/2000/svg">
  <!-- Background -->
  <rect width="500" height="400" fill="#f8f9fa"/>
  
  <!-- Desk -->
  <rect x="50" y="250" width="400" height="120" rx="10" fill="#8B4513"/>
  <rect x="50" y="250" width="400" height="20" rx="10" fill="#A0522D"/>
  
  <!-- Laptop -->
  <rect x="150" y="200" width="120" height="80" rx="5" fill="#2C3E50"/>
  <rect x="155" y="205" width="110" height="60" rx="3" fill="#34495E"/>
  <rect x="160" y="210" width="100" height="50" rx="2" fill="#4a6bff"/>
  
  <!-- Books -->
  <rect x="80" y="220" width="15" height="60" fill="#e74c3c"/>
  <rect x="95" y="215" width="15" height="65" fill="#3498db"/>
  <rect x="110" y="225" width="15" height="55" fill="#2ecc71"/>
  
  <!-- Coffee Cup -->
  <circle cx="350" cy="240" r="20" fill="#8B4513"/>
  <circle cx="350" cy="240" r="15" fill="#D2691E"/>
  <rect x="370" y="235" width="15" height="5" rx="2" fill="#8B4513"/>
  
  <!-- Notes/Papers -->
  <rect x="300" y="210" width="60" height="40" rx="3" fill="#ffffff" stroke="#ddd"/>
  <line x1="310" y1="220" x2="350" y2="220" stroke="#666" stroke-width="1"/>
  <line x1="310" y1="230" x2="340" y2="230" stroke="#666" stroke-width="1"/>
  <line x1="310" y1="240" x2="345" y2="240" stroke="#666" stroke-width="1"/>
  
  <!-- Pencil -->
  <rect x="320" y="190" width="3" height="30" fill="#FFD700"/>
  <polygon points="320,190 323,190 321.5,185" fill="#FF69B4"/>
  
  <!-- Study Icons Floating -->
  <circle cx="100" cy="100" r="25" fill="#4a6bff" opacity="0.1"/>
  <path d="M90 100h20v2H90v-2zm0 4h15v2H90v-2zm0 4h18v2H90v-2z" fill="#4a6bff"/>
  
  <circle cx="400" cy="80" r="25" fill="#6c63ff" opacity="0.1"/>
  <circle cx="400" cy="80" r="8" stroke="#6c63ff" stroke-width="2" fill="none"/>
  <path d="M400 75v5l3 3" stroke="#6c63ff" stroke-width="2" stroke-linecap="round"/>
  
  <circle cx="200" cy="60" r="25" fill="#ff6584" opacity="0.1"/>
  <rect x="190" y="55" width="20" height="10" rx="2" stroke="#ff6584" stroke-width="2" fill="none"/>
  <path d="M195 60h10M195 65h6" stroke="#ff6584" stroke-width="1"/>
  
  <!-- Lightbulb (idea) -->
  <circle cx="450" cy="150" r="25" fill="#ffc107" opacity="0.1"/>
  <circle cx="450" cy="145" r="8" fill="#ffc107"/>
  <rect x="447" y="153" width="6" height="4" fill="#ffc107"/>
  <rect x="448" y="157" width="4" height="2" fill="#ffc107"/>
</svg>